<?xml version="1.0" encoding="utf-8"?>
<!-- Generator: Adobe Illustrator 16.0.3, SVG Export Plug-In . SVG Version: 6.00 Build 0)  -->
<!DOCTYPE svg PUBLIC "-//W3C//DTD SVG 1.1//EN" "http://www.w3.org/Graphics/SVG/1.1/DTD/svg11.dtd">
<svg version="1.1" id="Layer_1" xmlns="http://www.w3.org/2000/svg" xmlns:xlink="http://www.w3.org/1999/xlink" x="0px" y="0px"
	 width="269px" height="63px" viewBox="-4.569 13.521 269 63" enable-background="new -4.569 13.521 269 63" xml:space="preserve">
<g>
	<g>
		<path fill="#7A7B7B" d="M112.318,65.681c0-1.545,1.524-3.07,4.45-3.07c2.951,0,3.998,1.144,3.998,2.404
			c0,1.262-1.022,1.403-1.261,1.403c0-2.14-1.213-2.76-2.737-2.76c-1.546,0-2.878,0.644-2.878,1.811
			c0,3.209,7.304,2.234,7.304,5.995c0,2.116-1.95,3.307-4.569,3.307c-2.402,0-4.495-1.046-4.495-2.236
			c0-1.048,1.189-1.07,1.189-1.07s0.666,2.211,3.425,2.211c1.952,0,2.857-1.022,2.857-1.784
			C119.6,68.561,112.318,69.869,112.318,65.681z"/>
		<path fill="#7A7B7B" d="M128.789,62.542c4.403,0,5.687,3.308,5.687,6.187c0,2.832-1.45,6.019-5.687,6.019
			c-4.21,0-5.852-3.187-5.852-6.019C122.937,65.849,124.221,62.542,128.789,62.542z M128.789,73.652
			c2.977,0,4.094-2.473,4.094-4.924s-0.859-5.093-4.094-5.093c-3.258,0-4.235,2.783-4.235,5.093
			C124.553,71.179,125.674,73.652,128.789,73.652z"/>
		<path fill="#7A7B7B" d="M143.64,63.065c1.121,0,1.856-0.715,1.856-1.93v-0.212h0.952v2.165h0.858c1.927,0,2.306-0.524,2.306-0.786
			c0.407,0.071,0.715,0.285,0.715,0.713c0,0.574-0.547,0.979-1.569,0.979h-2.31v7.137c0,1.331,0.262,2.642,1.502,2.642
			c1.307,0,1.662-1.547,1.662-1.547s0.788,0,0.788,0.88c0,0.857-1.024,1.737-2.619,1.737c-1.522,0-2.901-0.975-2.901-3.712v-7.137
			h-5.401v8.588c0,0.689,0.309,1.117,1.021,1.117h0.883v0.643h-5.355v-0.643h0.952c0.62,0,0.928-0.497,0.928-1.117v-8.588h-1.88
			v-0.929h0.715c1.165,0,1.165-0.999,1.165-0.999c0-4.427,2.308-4.975,3.834-4.975c1.688,0,3.114,0.642,3.114,1.832
			c0,0.763-0.572,1.237-1.262,1.237c0-0.57-0.071-2.069-1.853-2.069c-1.572,0-2.262,1.333-2.262,3.498v1.476h3.687H143.64z"/>
		<path fill="#7A7B7B" d="M160.922,66.205c-1.071,2.523-2.165,5.306-3.425,7.521c-0.216,0.378-0.644,1.046-1.476,1.046
			c-0.428,0-0.62-0.024-0.998-0.43c0.285-0.092,0.428-0.496,0.428-0.854c0-0.548-0.238-1.214-0.358-1.667
			c-0.331-1.119-1.452-5.091-2.163-6.947c-0.287-0.736-0.834-1.141-1.478-1.141h-0.283v-0.62h4.853v0.62h-0.45
			c-0.644,0-0.952,0.45-0.952,0.903c0,0.452,1.784,6.351,2.165,7.732c0.998-2.095,3.165-6.972,3.165-8.114
			c0-0.404-0.025-0.618-0.335-0.88c0,0,0.381-0.451,0.857-0.451c0.783,0,1.07,0.522,1.284,1.117c0,0,2.214,6.661,2.807,8.376
			c0.62-1.285,1.453-3.641,2.214-6.211c0.43-1.521,0.43-1.926,0.43-2.33c0-0.239-0.193-1.002-0.713-1.216
			c0,0,0.499-0.356,1.069-0.356c0.928,0,1.331,0.667,1.331,1.664c0,1.358-1.449,4.712-2.735,8.139
			c-0.38,1.023-1.071,2.642-2.354,2.642c-0.859,0-1.024-0.405-1.024-0.405s0.428-0.165,0.428-0.951
			C163.207,72.653,162.136,69.538,160.922,66.205z"/>
		<path fill="#7A7B7B" d="M181.654,73.725v0.616h-1.212c-1.903,0-1.951-1.31-1.951-1.974v-3.64h-1.545
			c-2.928,0-4.593,0.667-4.593,2.594c0,1.545,1.214,2.211,2.234,2.211c1.596,0,2.262-1.071,2.262-1.071
			c0.097,0,0.499,0.311,0.499,0.667c0,0.501-0.237,1.381-2.832,1.381c-1.474,0-3.831-0.811-3.831-3.213
			c0-2.926,2.809-3.593,6.281-3.593h1.524v-1.119c0-1.069-0.047-3.046-2.689-3.046c-2.331,0-2.997,1.596-2.997,2.738
			c0,0-1.168-0.025-1.168-1.262c0-1.453,1.788-2.499,4.165-2.499c2.618,0,4.284,1,4.284,4.068v5.355
			c0,1.119,0.309,1.785,1.214,1.785H181.654z"/>
		<path fill="#7A7B7B" d="M191.345,64.992c0,0.593-0.334,1.308-1.023,1.308c-0.501,0-0.644-0.308-0.644-0.308
			c0.095-0.071,0.287-0.572,0.287-0.881c0-0.713-0.406-1.379-1.404-1.379c-1.739,0-2.831,2.211-2.831,4.661v3.903
			c0,0.666,0.188,1.429,1.046,1.429h0.356v0.616h-4.688v-0.616h0.642c0.883,0,1.071-0.811,1.071-1.286V65.18
			c0-1.117-0.547-1.448-1.167-1.448h-0.546v-0.62h1.689c1.025,0,1.522,0.569,1.596,1.595c0.476-1.071,1.71-1.951,2.928-1.951
			C190.607,62.755,191.345,63.754,191.345,64.992z"/>
		<path fill="#7A7B7B" d="M195.727,69.607c-0.192-0.188-0.285-0.666-0.285-0.809c0-0.736,1.095-0.736,2.092-0.736h2.905
			c0.499,0,0.735-0.143,0.735-0.644c0-1.999-1.046-3.856-3.378-3.856c-2.782,0-4.068,2.62-4.068,5.236
			c0,2.381,1.523,4.782,3.904,4.782c2.331,0,3.234-1.284,3.735-2.094c0.379,0.143,0.735,0.618,0.735,0.903
			c0,1.046-1.355,2.236-4.471,2.236c-3.928,0-5.546-3.162-5.546-5.828c0-3.521,1.951-6.282,5.78-6.282c2.834,0,4.88,2,4.88,4.88
			c0,1.737-0.594,1.737-2.022,1.737C197.014,69.133,196.488,69.133,195.727,69.607z"/>
		<path fill="#7A7B7B" d="M218.172,72.057c0,0,0.859,0.119,0.859,0.81c0,1.024-0.979,1.714-2.501,1.714
			c-1.498,0-3.02-0.713-3.02-3.76V59.567c0-1.048-0.621-1.333-1.237-1.333h-0.62v-0.57h1.88c1.048,0,1.549,0.713,1.549,1.568v11.754
			c0,1.453,0.451,2.523,1.521,2.523C217.602,73.487,218.077,72.701,218.172,72.057z"/>
		<path fill="#7A7B7B" d="M226.267,72.867c0,0.858-1.025,1.737-2.616,1.737c-1.523,0-2.905-0.975-2.905-3.71v-6.9h-1.714v-0.882
			c1.31,0,2.288-0.334,2.333-2.188h0.953v2.188c2.783,0,3.163-0.548,3.163-0.81c0.404,0.071,0.713,0.285,0.713,0.713
			c0,0.574-0.546,0.979-1.568,0.979h-2.308v6.9c0,1.331,0.262,2.639,1.499,2.639c1.306,0,1.618-1.593,1.618-1.593
			S226.267,71.986,226.267,72.867z"/>
		<path fill="#7A7B7B" d="M238.928,72.176c0,0.833,0.406,1.549,1.216,1.549h0.713v0.616h-1.761c-0.832,0-1.811-0.569-1.811-1.902
			v-4.474c0-2.381-1.214-4.091-3.614-4.091c-2.569,0-3.928,2.473-3.928,4.996c0,2.521,1.45,4.735,3.689,4.735
			c1.355,0,2.142-0.786,2.261-0.929c0,0,0.356,0.404,0.356,0.759c0,1.099-2.07,1.168-2.785,1.168c-3.022,0-5.211-2.593-5.211-5.783
			c0-2.735,1.451-5.972,5.617-5.972c1.568,0,3.044,0.644,3.614,1.618v-4.781c0-0.597-0.047-1.452-1.235-1.452h-0.618v-0.618h1.807
			c1.285,0,1.689,0.642,1.689,1.903V72.176z"/>
		<path fill="#7A7B7B" d="M243.882,74.461c-0.689,0-1.354-0.428-1.354-1.166c0-0.785,0.64-1.262,1.354-1.262
			c0.857,0,1.404,0.477,1.404,1.262C245.286,74.057,244.666,74.461,243.882,74.461z"/>
	</g>
	<g>
		<g>
			<linearGradient id="SVGID_1_" gradientUnits="userSpaceOnUse" x1="16.4753" y1="35.1201" x2="74.3337" y2="35.1201">
				<stop  offset="0" style="stop-color:#CB4628"/>
				<stop  offset="1" style="stop-color:#F29A20"/>
			</linearGradient>
			<path fill="url(#SVGID_1_)" d="M63.354,21.723c0.64-2.187,1.561-3.712,2.765-4.565c1.203-0.855,2.416-1.335,3.645-1.444
				c1.389-0.159,2.914,0.053,4.571,0.641c-0.058,0.428-0.163,0.88-0.322,1.361c-0.105,0.429-0.243,0.883-0.401,1.363
				c-0.159,0.481-0.296,0.99-0.401,1.523c-0.59,2.083-1.243,4.379-1.966,6.893c-0.718,2.511-1.508,5.06-2.362,7.651
				c-0.851,2.593-1.719,5.182-2.601,7.772c-0.885,2.594-1.781,5.009-2.683,7.251c-0.754,1.765-1.781,2.939-3.086,3.527
				c-1.313,0.587-2.605,0.88-3.888,0.88c-1.498,0-3.102-0.293-4.808-0.88c-0.533-0.962-1.08-2.125-1.644-3.485
				c-0.56-1.363-1.124-2.807-1.684-4.328c-0.561-1.522-1.12-3.097-1.684-4.728c-0.56-1.629-1.105-3.19-1.639-4.687
				c-0.754,2.136-1.486,4.486-2.204,7.049c-0.724,2.563-1.433,4.783-2.126,6.651c-0.643,1.765-1.577,2.939-2.803,3.527
				c-1.229,0.587-2.459,0.88-3.688,0.88c-1.442,0-2.993-0.293-4.646-0.88c-1.118-1.923-2.256-4.274-3.406-7.053
				c-1.151-2.776-2.257-5.689-3.329-8.733c-1.066-3.046-2.067-6.091-3.001-9.136c-0.936-3.044-1.723-5.77-2.367-8.173
				c-0.159-0.534-0.305-1.042-0.442-1.523c-0.132-0.48-0.25-0.934-0.36-1.363c-0.159-0.481-0.265-0.934-0.318-1.361
				c1.604-0.588,3.099-0.8,4.486-0.641c1.173,0.109,2.376,0.588,3.606,1.444c1.23,0.853,2.165,2.378,2.808,4.565
				c1.225,4.221,2.266,7.813,3.125,10.78c0.852,2.964,1.574,5.381,2.161,7.25c0.643,2.193,1.203,4.037,1.684,5.532l1.841-5.532
				c0.645-1.922,1.446-4.367,2.407-7.331c0.961-2.964,2.084-6.532,3.368-10.7c0.639-2.187,1.494-3.697,2.561-4.527
				c1.07-0.827,2.136-1.294,3.204-1.401c1.23-0.16,2.512,0.028,3.848,0.561c-0.106,0.428-0.238,0.88-0.401,1.361
				c-0.105,0.429-0.224,0.883-0.36,1.363c-0.132,0.481-0.278,0.99-0.438,1.523c-0.109,0.32-0.242,0.854-0.404,1.602
				c-0.159,0.748-0.291,1.312-0.398,1.684c1.12,4.006,2.111,7.371,2.963,10.096c0.855,2.726,1.578,4.941,2.164,6.652
				c0.644,1.978,1.23,3.525,1.764,4.648c0.479-1.495,1.04-3.338,1.684-5.532c0.585-1.87,1.294-4.287,2.124-7.25
				C61.097,29.536,62.125,25.943,63.354,21.723z"/>
			<linearGradient id="SVGID_2_" gradientUnits="userSpaceOnUse" x1="75.1316" y1="34.957" x2="110.1653" y2="34.957">
				<stop  offset="0" style="stop-color:#CB4628"/>
				<stop  offset="1" style="stop-color:#F29A20"/>
			</linearGradient>
			<path fill="url(#SVGID_2_)" d="M110.15,28.134c-0.053,1.923-0.493,3.727-1.322,5.409c-0.829,1.684-2.204,3.045-4.125,4.089
				c-1.923,1.04-4.474,1.669-7.651,1.883c-3.183,0.213-7.172-0.214-11.985-1.283c0.433,3.312,1.393,5.688,2.887,7.131
				c1.495,1.444,3.368,2.191,5.611,2.246c2.243,0,4.271-0.108,6.091-0.324c1.812-0.21,3.364-0.266,4.646-0.158
				c1.282,0.108,2.255,0.482,2.921,1.121c0.67,0.642,0.979,1.842,0.926,3.606c-1.125,0.479-2.434,0.909-3.928,1.283
				c-1.283,0.321-2.843,0.601-4.689,0.84c-1.843,0.242-3.962,0.362-6.369,0.362c-2.244,0-4.448-0.347-6.612-1.044
				c-2.164-0.692-4.09-1.8-5.769-3.325c-1.685-1.521-3.046-3.51-4.087-5.97c-1.044-2.456-1.564-5.448-1.564-8.974
				c0-3.526,0.52-6.491,1.564-8.896c1.041-2.403,2.402-4.353,4.087-5.849c1.679-1.496,3.605-2.604,5.769-3.326
				c2.164-0.721,4.368-1.162,6.612-1.321c2.084-0.161,4.151,0,6.209,0.479c2.06,0.483,3.901,1.257,5.528,2.324
				c1.63,1.069,2.94,2.418,3.927,4.048C109.82,24.115,110.256,25.998,110.15,28.134z M85.066,31.901
				c2.19,0.587,4.223,0.974,6.091,1.162c1.869,0.188,3.5,0.135,4.888-0.16c1.393-0.293,2.513-0.827,3.368-1.604
				c0.854-0.773,1.361-1.827,1.525-3.165c0.212-1.653-0.296-3.11-1.525-4.368c-1.23-1.254-3.178-1.803-5.849-1.641
				c-2.243,0.106-4.117,0.921-5.611,2.441C86.459,26.092,85.499,28.536,85.066,31.901z"/>
		</g>
	</g>
	<linearGradient id="SVGID_3_" gradientUnits="userSpaceOnUse" x1="141.8645" y1="53.0503" x2="141.8645" y2="15.5908">
		<stop  offset="0" style="stop-color:#187CBF"/>
		<stop  offset="1" style="stop-color:#1D3F75"/>
	</linearGradient>
	<path fill="url(#SVGID_3_)" d="M169.868,48.928c-1.657,0-2.371-1.998-2.371-3.017V28.457c0-8.056-4.945-12.867-13.225-12.867
		c-4.199,0-7.944,2.116-10.383,5.759c-1.614-2.971-4.663-5.759-10.433-5.759c-4.183,0-7.647,2.094-9.811,4.605
		c-0.574-1.618-1.917-3.171-5.069-3.171h-6.996v3.978h3.129c2.34,0,2.521,1.981,2.521,2.589v22.605c0,0.642-0.181,2.731-2.521,2.731
		h-3.129v4.122h17.211v-4.122h-2.204c-0.585,0-2.375,0-2.375-2.444v-11.59c0-4.091,0.859-13.605,8.815-13.605
		c3.482,0,5.806,1.753,5.806,10.316v14.879c0,1.115-0.313,2.444-1.803,2.444h-2.416v4.122h15.854v-4.122h-2.203
		c-1.622,0-2.447-0.822-2.447-2.444v-13.52c0-5.802,2.905-11.675,8.453-11.675c3.999,0,6.168,1.586,6.168,9.957v14.236
		c0,4.808,2.493,7.568,6.854,7.568h4.853v-4.122H169.868z"/>
	<linearGradient id="SVGID_4_" gradientUnits="userSpaceOnUse" x1="206.4153" y1="53.9097" x2="206.4153" y2="15.2354">
		<stop  offset="0" style="stop-color:#187CBF"/>
		<stop  offset="1" style="stop-color:#1D3F75"/>
	</linearGradient>
	<path fill="url(#SVGID_4_)" d="M242.271,49.574h-1.127c-0.283,0-2.844-0.146-6.382-5.182c-0.253-0.352-0.578-0.801-0.972-1.336
		c-1.492-2.042-3.926-5.382-6.17-8.73c2.438-3.608,5.149-7.54,7.473-10.893c1.198-1.517,2.177-2.288,4.186-2.288h2.349v-4.121
		h-16.854v4.121h2.631c1.441,0,1.441,0.388,1.447,0.704c-0.062,0.544-1.319,2.951-4.47,7.442l-5.104-8.023l-0.046-0.063
		c-1.715-2.329-3.652-4.97-7.351-4.97c-4.474,0-6.114,3.597-6.184,3.75l-0.701,1.59h1.737c4.188,0,4.878,0.918,7.467,4.343
		c1.841,2.432,4.332,5.994,6.117,8.734l-1.779,2.526c-0.424,0.606-0.855,1.237-1.299,1.88c-3.013,4.397-6.765,9.87-9.65,9.87h-1.799
		h-0.764h-1.444c-1.218,0-2.516-0.326-2.516-4.235V28.597c0-8.99-4.581-13.362-14.008-13.362c-7.91,0-13.65,3.635-13.65,8.643
		c0,3.543,2.759,4.886,4.613,4.923l1.154,0.024v-1.156c0-1.185,0.382-7.095,7.883-7.095c6.416,0,6.954,4.141,6.954,8.023v2.235
		h-3.452c-8.59,0-20.015,1.235-20.015,11.932c0,7.914,7.564,10.79,12.646,10.79c6.4,0,9.648-1.778,9.648-5.28
		c0-1.62-1.645-3.136-2.635-3.136h-0.628l-0.335,0.534c-0.012,0.025-1.719,2.685-5.833,2.685c-2.695,0-5.595-1.728-5.595-5.522
		c0-3.296,1.507-6.667,12.676-6.667h3.521v9.814c0,1.748,0,7.068,6.996,7.068h4.018h0.764h16.523v-4.122l-2.731,0.002
		c-1.252-0.05-1.505-0.299-1.491-0.301c0-0.2,0-0.474,0.397-1.036c0.312-0.493,2.843-4.436,5.239-7.895l6.534,9.925
		c1.941,2.843,4.209,4.286,6.73,4.286c1.903,0,3.167-0.636,3.887-1.17c0.647-0.476,1.406-1.29,1.406-2.017L242.271,49.574z"/>
</g>
</svg>
